<?xml version="1.0" encoding="UTF-8"?>
<svg id="Capa_1" data-name="Capa 1" xmlns="http://www.w3.org/2000/svg" viewBox="0 0 297.64 297.64">
  <defs>
    <style>
      .cls-1 {
        fill: #fff;
      }

      .cls-2 {
        fill: #46ab56;
      }
    </style>
  </defs>
  <path class="cls-2" d="m148.7,284.89c-18.47,0-36.4-3.62-53.28-10.76-16.3-6.89-30.94-16.76-43.5-29.33-12.57-12.57-22.43-27.2-29.33-43.5-7.14-16.88-10.76-34.8-10.76-53.28s3.62-36.4,10.76-53.28c6.89-16.3,16.76-30.94,29.33-43.5,12.57-12.57,27.2-22.43,43.5-29.33,16.88-7.14,34.8-10.76,53.28-10.76s36.4,3.62,53.28,10.76c16.3,6.89,30.94,16.76,43.5,29.33,12.57,12.57,22.43,27.2,29.33,43.5,7.14,16.88,10.76,34.8,10.76,53.28s-3.62,36.4-10.76,53.28c-6.89,16.3-16.76,30.94-29.33,43.5-12.57,12.57-27.2,22.43-43.5,29.33-16.88,7.14-34.8,10.76-53.28,10.76Z"/>
  <path class="cls-1" d="m77.06,165.83c7.38,12,20.14,30.92,30,43.35,4.66,5.87,12.92,6.41,18.35,1.25,31.24-29.65,60.24-67.06,94.96-118.85,2.01-3,1-7.09-2.18-8.8h0c-2.43-1.31-5.44-.82-7.34,1.19-38.52,40.78-58.27,60.17-96.6,92.05,0,0-12.08-7.68-26.67-19.46-3.13-2.53-7.73-1.96-10.15,1.26h0c-1.76,2.34-1.9,5.51-.37,8Z"/>
</svg>