<?xml version="1.0" encoding="UTF-8"?>
<svg id="Capa_1" data-name="Capa 1" xmlns="http://www.w3.org/2000/svg" viewBox="0 0 297.64 297.64">
  <defs>
    <style>
      .cls-1 {
        fill: #fff;
      }

      .cls-2 {
        fill: #c72e2c;
      }
    </style>
  </defs>
  <path class="cls-2" d="m148.82,284.89c-18.37,0-36.19-3.6-52.97-10.7-16.2-6.85-30.75-16.66-43.25-29.16-12.49-12.49-22.3-27.04-29.16-43.25-7.1-16.78-10.7-34.6-10.7-52.97s3.6-36.19,10.7-52.97c6.85-16.2,16.66-30.75,29.16-43.25,12.49-12.49,27.04-22.3,43.25-29.16,16.78-7.1,34.6-10.7,52.97-10.7s36.19,3.6,52.97,10.7c16.2,6.85,30.75,16.66,43.25,29.16,12.49,12.49,22.3,27.04,29.16,43.25,7.1,16.78,10.7,34.6,10.7,52.97s-3.6,36.19-10.7,52.97c-6.85,16.2-16.66,30.75-29.16,43.25-12.49,12.49-27.04,22.3-43.25,29.16-16.78,7.1-34.6,10.7-52.97,10.7Z"/>
  <path class="cls-1" d="m163.43,148.82l40.75-40.75c4.03-4.03,4.03-10.57,0-14.61-4.03-4.03-10.57-4.03-14.61,0l-40.75,40.75-40.75-40.75c-4.03-4.03-10.57-4.03-14.61,0-4.03,4.03-4.03,10.57,0,14.61l40.75,40.75-40.75,40.75c-4.03,4.03-4.03,10.57,0,14.61,2.02,2.02,4.66,3.03,7.3,3.03s5.29-1.01,7.3-3.03l40.75-40.75,40.75,40.75c2.02,2.02,4.66,3.03,7.3,3.03s5.29-1.01,7.3-3.03c4.03-4.03,4.03-10.57,0-14.61l-40.75-40.75Z"/>
</svg>