<?xml version="1.0" encoding="UTF-8"?>
<svg id="Capa_1" data-name="Capa 1" xmlns="http://www.w3.org/2000/svg" viewBox="0 0 78.78 123.33">
  <defs>
    <style>
      .cls-1 {
        fill: #31b3e3;
      }
    </style>
  </defs>
  <path class="cls-1" d="m69.51,48.46v-17.61C69.51,14.24,56,.72,39.39.72S9.26,14.24,9.26,30.85v17.61H2.83v72.81h7.66v-36.21c-1.39-.46-2.4-1.75-2.4-3.3,0-1.93,1.56-3.49,3.49-3.49s3.49,1.56,3.49,3.49c0,1.54-1.01,2.84-2.4,3.3v36.21h11.75v-19.14c-1.39-.46-2.4-1.75-2.4-3.3,0-1.93,1.56-3.49,3.49-3.49s3.49,1.56,3.49,3.49c0,1.54-1.01,2.84-2.4,3.3v19.14h11.71v-4.57c-1.39-.46-2.4-1.75-2.4-3.3,0-1.93,1.56-3.49,3.49-3.49s3.49,1.56,3.49,3.49c0,1.54-1.01,2.84-2.4,3.3v4.57h12.33v-11.55c-1.39-.46-2.4-1.75-2.4-3.3,0-1.93,1.56-3.49,3.49-3.49s3.49,1.56,3.49,3.49c0,1.54-1.01,2.84-2.4,3.3v11.55h11.68v-16.67l-4.84-4.84v-9.97c-1.39-.46-2.4-1.75-2.4-3.3,0-1.93,1.56-3.49,3.49-3.49s3.49,1.56,3.49,3.49c0,1.54-1.01,2.84-2.4,3.3v9.07l4.84,4.84v17.57h7.11V48.46h-6.43ZM17.97,30.85c0-11.81,9.61-21.42,21.42-21.42s21.42,9.61,21.42,21.42v17.61H17.97v-17.61Zm24.27,46.93v8.42c0,1.58-1.28,2.85-2.85,2.85s-2.85-1.28-2.85-2.85v-8.42c-3.48-1.19-5.99-4.48-5.99-8.36,0-4.88,3.96-8.84,8.84-8.84s8.84,3.96,8.84,8.84c0,3.88-2.51,7.17-5.99,8.36Z"/>
</svg>